<?xml version="1.0" encoding="UTF-8"?>
<svg xmlns="http://www.w3.org/2000/svg" xmlns:xlink="http://www.w3.org/1999/xlink" width="285.132pt" height="115.794pt" viewBox="0 0 285.132 115.794" version="1.1">
<g id="surface1">
<path style=" stroke:none;fill-rule:nonzero;fill:rgb(100%,100%,100%);fill-opacity:1;" d="M 74.90625 63.636719 L 74.90625 48.964844 L 60.511719 48.964844 L 60.511719 63.636719 L 55.394531 63.636719 L 55.394531 33.851563 L 60.511719 33.851563 L 60.511719 47.003906 L 74.90625 47.003906 L 74.90625 33.851563 L 80.023438 33.851563 L 80.023438 63.636719 Z M 74.90625 63.636719 "/>
<path style=" stroke:none;fill-rule:nonzero;fill:rgb(100%,100%,100%);fill-opacity:1;" d="M 97.851563 40.808594 L 93.695313 51.125 L 102.128906 51.125 Z M 107.246094 63.636719 C 105.609375 59.558594 104.96875 58.039063 104.96875 58.039063 L 102.886719 53.042969 L 93.015625 53.042969 L 88.9375 63.636719 L 86.378906 63.636719 L 98.691406 33.851563 L 100.171875 33.851563 L 112.804688 63.636719 Z M 107.246094 63.636719 "/>
<path style=" stroke:none;fill-rule:nonzero;fill:rgb(100%,100%,100%);fill-opacity:1;" d="M 124.914063 63.597656 C 122.117188 63.316406 118.519531 61.117188 116.640625 58.121094 L 118.078125 56.519531 C 120.558594 60.039063 122.078125 61.160156 124.796875 61.597656 C 126.554688 61.878906 127.992188 61.4375 129.074219 60.558594 C 130.152344 59.636719 130.753906 58.558594 130.871094 57.359375 C 130.992188 56.121094 130.710938 55.042969 129.953125 54.121094 C 129.195313 53.164063 127.675781 52.042969 125.316406 50.722656 C 123.195313 49.5625 121.597656 48.523438 120.558594 47.683594 C 119.4375 46.804688 118.597656 45.726563 118.078125 44.449219 C 117.519531 43.167969 117.320313 41.847656 117.480469 40.488281 C 117.71875 38.371094 118.640625 36.691406 120.238281 35.453125 C 121.835938 34.210938 123.757813 33.734375 125.957031 33.972656 C 127.15625 34.09375 128.3125 34.414063 129.351563 34.933594 C 130.433594 35.453125 131.433594 36.453125 132.710938 38.171875 L 131.03125 39.53125 C 130.511719 38.691406 130.273438 38.371094 129.992188 38.050781 C 128.914063 36.8125 127.554688 36.089844 125.996094 35.929688 C 124.4375 35.773438 123.355469 36.089844 122.636719 36.730469 C 121.878906 37.492188 121.4375 38.289063 121.359375 39.210938 C 121.238281 40.328125 121.558594 41.328125 122.316406 42.207031 C 123.117188 43.128906 124.636719 44.289063 126.996094 45.644531 C 129.273438 46.964844 130.914063 48.003906 131.910156 48.765625 C 132.992188 49.5625 133.789063 50.601563 134.351563 51.882813 C 134.910156 53.203125 135.109375 54.640625 134.949219 56.199219 C 134.671875 58.640625 133.632813 60.597656 131.792969 61.996094 C 129.953125 63.394531 127.632813 63.917969 124.914063 63.597656 "/>
<path style=" stroke:none;fill-rule:nonzero;fill:rgb(100%,100%,100%);fill-opacity:1;" d="M 150.140625 40.808594 L 145.984375 51.125 L 154.417969 51.125 Z M 159.535156 63.636719 C 157.898438 59.558594 157.257813 58.039063 157.257813 58.039063 L 155.179688 53.042969 L 145.304688 53.042969 L 141.226563 63.636719 L 138.667969 63.636719 L 150.980469 33.851563 L 152.460938 33.851563 L 165.09375 63.636719 Z M 159.535156 63.636719 "/>
<path style=" stroke:none;fill-rule:nonzero;fill:rgb(100%,100%,100%);fill-opacity:1;" d="M 192.957031 63.636719 L 173.527344 38.089844 L 173.527344 62.917969 L 171.570313 62.917969 L 171.570313 33.851563 L 176.683594 33.851563 L 192.277344 54.679688 L 192.277344 33.851563 L 194.476563 33.851563 L 194.476563 63.636719 Z M 192.957031 63.636719 "/>
<path style=" stroke:none;fill-rule:nonzero;fill:rgb(100%,100%,100%);fill-opacity:1;" d="M 221.941406 35.8125 L 217.703125 35.8125 L 217.703125 63.636719 L 212.585938 63.636719 L 212.585938 35.8125 L 200.671875 35.8125 L 200.75 33.855469 L 229.695313 33.855469 L 229.734375 35.8125 Z M 221.941406 35.8125 "/>
<path style=" stroke:none;fill-rule:nonzero;fill:rgb(100%,100%,100%);fill-opacity:1;" d="M 102.773438 75.390625 L 102.410156 75.390625 C 102.40625 74.457031 102.386719 73.808594 102.351563 73.449219 C 102.777344 73.464844 103.445313 73.484375 104.355469 73.507813 C 105.09375 73.523438 105.585938 73.53125 105.832031 73.53125 C 106.097656 73.53125 106.710938 73.519531 107.675781 73.496094 C 108.378906 73.480469 108.886719 73.464844 109.207031 73.449219 C 109.160156 73.886719 109.128906 74.535156 109.113281 75.390625 L 108.738281 75.390625 L 108.691406 74.828125 C 108.660156 74.488281 108.636719 74.292969 108.628906 74.246094 C 108.617188 74.199219 108.597656 74.167969 108.578125 74.148438 C 108.554688 74.128906 108.523438 74.113281 108.480469 74.101563 C 108.425781 74.089844 108.230469 74.074219 107.894531 74.054688 C 107.558594 74.035156 107.292969 74.023438 107.097656 74.023438 L 106.382813 74.023438 C 106.34375 74.398438 106.324219 74.90625 106.324219 75.539063 L 106.324219 78.964844 C 106.324219 79.496094 106.332031 80.015625 106.339844 80.519531 C 106.351563 80.890625 106.382813 81.109375 106.425781 81.179688 C 106.472656 81.25 106.542969 81.300781 106.644531 81.332031 C 106.742188 81.367188 107.027344 81.386719 107.492188 81.394531 L 107.492188 81.769531 C 106.792969 81.738281 106.265625 81.722656 105.914063 81.722656 C 105.761719 81.722656 105.152344 81.738281 104.085938 81.769531 L 104.085938 81.394531 C 104.546875 81.386719 104.832031 81.367188 104.929688 81.332031 C 105.03125 81.300781 105.097656 81.253906 105.132813 81.195313 C 105.183594 81.117188 105.214844 80.929688 105.226563 80.628906 C 105.226563 80.546875 105.238281 79.992188 105.257813 78.964844 L 105.257813 75.554688 C 105.257813 75.390625 105.253906 75.207031 105.246094 75.015625 L 105.210938 74.023438 L 104.335938 74.023438 C 103.835938 74.023438 103.433594 74.042969 103.136719 74.082031 C 103.042969 74.09375 102.980469 74.121094 102.957031 74.160156 C 102.914063 74.226563 102.875 74.4375 102.835938 74.796875 Z M 102.773438 75.390625 "/>
<path style=" stroke:none;fill-rule:nonzero;fill:rgb(100%,100%,100%);fill-opacity:1;" d="M 117.015625 78.484375 L 119.96875 78.484375 L 118.511719 74.957031 Z M 114.285156 81.769531 L 114.285156 81.371094 C 114.597656 81.367188 114.789063 81.355469 114.863281 81.335938 C 114.941406 81.3125 115.011719 81.273438 115.074219 81.210938 C 115.140625 81.152344 115.234375 80.992188 115.355469 80.738281 C 115.425781 80.59375 115.679688 80.046875 116.117188 79.09375 L 117.585938 75.789063 C 117.746094 75.425781 118.085938 74.617188 118.609375 73.363281 L 118.984375 73.363281 L 121.492188 79.238281 C 121.898438 80.191406 122.167969 80.789063 122.300781 81.03125 C 122.375 81.167969 122.457031 81.257813 122.542969 81.300781 C 122.632813 81.34375 122.832031 81.367188 123.140625 81.371094 L 123.140625 81.769531 C 122.53125 81.730469 122.105469 81.710938 121.859375 81.710938 L 119.972656 81.769531 L 119.972656 81.371094 C 120.410156 81.363281 120.675781 81.351563 120.769531 81.332031 C 120.863281 81.3125 120.925781 81.285156 120.960938 81.246094 C 120.992188 81.210938 121.011719 81.164063 121.011719 81.109375 C 121.011719 81.023438 120.984375 80.910156 120.929688 80.773438 L 120.207031 78.980469 L 116.816406 78.980469 L 116.179688 80.488281 C 116.066406 80.757813 116.007813 80.953125 116.007813 81.078125 C 116.007813 81.132813 116.023438 81.179688 116.054688 81.214844 C 116.097656 81.265625 116.164063 81.300781 116.253906 81.320313 C 116.398438 81.351563 116.652344 81.367188 117.015625 81.371094 L 117.015625 81.769531 C 116.355469 81.734375 115.859375 81.71875 115.53125 81.71875 C 115.152344 81.71875 114.738281 81.734375 114.285156 81.769531 "/>
<path style=" stroke:none;fill-rule:nonzero;fill:rgb(100%,100%,100%);fill-opacity:1;" d="M 127.746094 73.964844 L 127.746094 73.609375 L 129.160156 73.332031 C 129.316406 73.386719 129.421875 73.441406 129.480469 73.488281 C 129.539063 73.535156 129.664063 73.6875 129.851563 73.9375 C 130.128906 74.308594 130.449219 74.8125 130.8125 75.453125 C 131.175781 76.089844 131.5625 76.824219 131.972656 77.644531 C 132.386719 77.011719 132.808594 76.320313 133.246094 75.574219 L 134.492188 73.449219 L 135.386719 73.449219 L 135.386719 73.609375 C 135.171875 73.847656 134.777344 74.363281 134.203125 75.160156 C 133.871094 75.621094 133.441406 76.289063 132.910156 77.167969 C 132.578125 77.710938 132.390625 78.042969 132.347656 78.164063 C 132.304688 78.289063 132.28125 78.402344 132.28125 78.511719 L 132.28125 78.964844 C 132.28125 79.496094 132.289063 80.011719 132.300781 80.515625 C 132.3125 80.886719 132.339844 81.109375 132.382813 81.179688 C 132.429688 81.25 132.5 81.300781 132.601563 81.335938 C 132.699219 81.367188 132.984375 81.386719 133.449219 81.394531 L 133.449219 81.769531 C 132.8125 81.742188 132.261719 81.730469 131.796875 81.730469 C 131.351563 81.730469 130.761719 81.742188 130.03125 81.769531 L 130.03125 81.394531 C 130.488281 81.386719 130.769531 81.367188 130.871094 81.335938 C 130.972656 81.300781 131.039063 81.253906 131.074219 81.195313 C 131.125 81.117188 131.15625 80.929688 131.167969 80.628906 C 131.171875 80.546875 131.183594 79.992188 131.199219 78.964844 L 131.199219 78.277344 C 131.117188 78.101563 131.035156 77.945313 130.957031 77.804688 C 130.902344 77.707031 130.703125 77.371094 130.359375 76.796875 L 129.972656 76.164063 C 129.667969 75.667969 129.441406 75.3125 129.292969 75.101563 C 129.007813 74.695313 128.773438 74.40625 128.585938 74.230469 C 128.484375 74.132813 128.375 74.0625 128.265625 74.023438 C 128.152344 73.984375 127.980469 73.964844 127.746094 73.964844 "/>
<path style=" stroke:none;fill-rule:nonzero;fill:rgb(100%,100%,100%);fill-opacity:1;" d="M 141.878906 81.769531 L 141.878906 81.464844 C 142.121094 81.351563 142.273438 81.261719 142.339844 81.195313 C 142.375 81.160156 142.402344 81.117188 142.417969 81.0625 C 142.453125 80.953125 142.476563 80.71875 142.488281 80.359375 C 142.507813 79.824219 142.519531 79.507813 142.519531 79.40625 L 142.519531 76.253906 C 142.519531 75.726563 142.511719 75.207031 142.5 74.699219 C 142.488281 74.328125 142.460938 74.109375 142.414063 74.039063 C 142.371094 73.96875 142.296875 73.917969 142.199219 73.886719 C 142.097656 73.855469 141.816406 73.832031 141.351563 73.824219 L 141.351563 73.449219 C 142.304688 73.476563 142.894531 73.492188 143.121094 73.492188 C 143.371094 73.492188 143.933594 73.476563 144.804688 73.449219 L 144.804688 73.824219 C 144.339844 73.832031 144.054688 73.855469 143.957031 73.886719 C 143.855469 73.917969 143.789063 73.964844 143.75 74.023438 C 143.703125 74.101563 143.671875 74.292969 143.660156 74.59375 C 143.65625 74.671875 143.644531 75.226563 143.632813 76.253906 L 143.632813 80.191406 C 143.632813 80.601563 143.640625 80.933594 143.660156 81.191406 C 144.105469 81.21875 144.546875 81.230469 144.984375 81.230469 C 146.085938 81.230469 146.859375 81.160156 147.300781 81.019531 C 147.351563 80.902344 147.394531 80.769531 147.433594 80.617188 L 147.667969 79.644531 L 148.0625 79.644531 C 147.976563 80.226563 147.890625 80.910156 147.808594 81.695313 C 147.648438 81.726563 147.523438 81.746094 147.429688 81.753906 C 147.226563 81.765625 146.914063 81.769531 146.492188 81.769531 L 143.023438 81.730469 C 142.648438 81.730469 142.265625 81.742188 141.878906 81.769531 "/>
<path style=" stroke:none;fill-rule:nonzero;fill:rgb(100%,100%,100%);fill-opacity:1;" d="M 155.492188 77.175781 C 155.492188 77.546875 155.527344 77.925781 155.601563 78.308594 C 155.675781 78.691406 155.769531 79.019531 155.882813 79.296875 C 156.070313 79.765625 156.316406 80.160156 156.621094 80.480469 C 156.921875 80.796875 157.261719 81.03125 157.632813 81.183594 C 158.007813 81.332031 158.417969 81.40625 158.871094 81.40625 C 159.5 81.40625 160.046875 81.253906 160.511719 80.949219 C 160.976563 80.640625 161.324219 80.207031 161.554688 79.652344 C 161.78125 79.097656 161.894531 78.453125 161.894531 77.726563 C 161.894531 77.105469 161.8125 76.535156 161.648438 76.011719 C 161.546875 75.691406 161.414063 75.402344 161.246094 75.140625 C 161.078125 74.882813 160.878906 74.65625 160.644531 74.460938 C 160.414063 74.269531 160.109375 74.105469 159.738281 73.972656 C 159.367188 73.839844 158.96875 73.773438 158.539063 73.773438 C 157.917969 73.773438 157.371094 73.910156 156.902344 74.1875 C 156.433594 74.464844 156.082031 74.867188 155.84375 75.394531 C 155.609375 75.917969 155.492188 76.511719 155.492188 77.175781 M 154.273438 77.664063 C 154.273438 77.046875 154.367188 76.476563 154.550781 75.953125 C 154.738281 75.429688 155.042969 74.957031 155.472656 74.539063 C 155.902344 74.121094 156.390625 73.808594 156.933594 73.59375 C 157.476563 73.382813 158.097656 73.273438 158.796875 73.273438 C 159.441406 73.273438 160.027344 73.363281 160.554688 73.546875 C 161.082031 73.730469 161.515625 73.96875 161.851563 74.269531 C 162.191406 74.566406 162.457031 74.894531 162.652344 75.25 C 162.800781 75.515625 162.917969 75.828125 163.007813 76.1875 C 163.09375 76.546875 163.136719 76.929688 163.136719 77.339844 C 163.136719 78.65625 162.695313 79.753906 161.8125 80.628906 C 160.925781 81.503906 159.808594 81.941406 158.460938 81.941406 C 157.847656 81.941406 157.277344 81.839844 156.746094 81.640625 C 156.214844 81.441406 155.765625 81.148438 155.398438 80.753906 C 155.03125 80.363281 154.75 79.886719 154.558594 79.324219 C 154.367188 78.765625 154.273438 78.210938 154.273438 77.664063 "/>
<path style=" stroke:none;fill-rule:nonzero;fill:rgb(100%,100%,100%);fill-opacity:1;" d="M 169.203125 73.824219 L 169.203125 73.449219 C 169.355469 73.453125 169.585938 73.460938 169.898438 73.464844 L 171.023438 73.492188 C 171.246094 73.492188 171.59375 73.484375 172.0625 73.46875 C 172.671875 73.449219 173.023438 73.4375 173.121094 73.4375 C 173.867188 73.4375 174.414063 73.503906 174.753906 73.636719 C 175.097656 73.769531 175.359375 73.984375 175.546875 74.285156 C 175.734375 74.585938 175.828125 74.910156 175.828125 75.261719 C 175.828125 75.589844 175.742188 75.914063 175.566406 76.238281 C 175.390625 76.5625 175.136719 76.832031 174.800781 77.046875 C 174.46875 77.261719 174.035156 77.429688 173.5 77.546875 C 173.597656 77.683594 173.828125 77.984375 174.191406 78.457031 L 175.667969 80.398438 C 176.089844 80.941406 176.335938 81.246094 176.40625 81.308594 C 176.441406 81.335938 176.472656 81.355469 176.511719 81.367188 C 176.570313 81.386719 176.699219 81.394531 176.894531 81.394531 L 176.894531 81.769531 C 176.601563 81.742188 176.34375 81.730469 176.121094 81.730469 C 175.890625 81.730469 175.609375 81.742188 175.277344 81.769531 C 175.023438 81.476563 174.59375 80.90625 173.996094 80.054688 C 173.664063 79.585938 173.367188 79.191406 173.113281 78.875 C 172.703125 78.351563 172.3125 77.878906 171.9375 77.453125 L 171.996094 77.277344 C 172.199219 77.289063 172.355469 77.292969 172.460938 77.292969 C 173.171875 77.292969 173.710938 77.125 174.078125 76.789063 C 174.445313 76.453125 174.628906 76.011719 174.628906 75.460938 C 174.628906 74.980469 174.46875 74.597656 174.152344 74.3125 C 173.835938 74.03125 173.359375 73.890625 172.71875 73.890625 C 172.316406 73.890625 171.921875 73.949219 171.535156 74.070313 C 171.519531 74.28125 171.507813 74.480469 171.5 74.664063 C 171.496094 74.71875 171.480469 75.285156 171.457031 76.367188 L 171.457031 78.964844 C 171.457031 79.496094 171.46875 80.011719 171.488281 80.515625 C 171.496094 80.886719 171.523438 81.109375 171.566406 81.179688 C 171.613281 81.25 171.683594 81.300781 171.785156 81.335938 C 171.886719 81.367188 172.167969 81.386719 172.625 81.394531 L 172.625 81.769531 C 172.070313 81.742188 171.558594 81.730469 171.09375 81.730469 C 170.71875 81.730469 170.089844 81.742188 169.203125 81.769531 L 169.203125 81.394531 C 169.660156 81.386719 169.941406 81.367188 170.042969 81.335938 C 170.144531 81.300781 170.214844 81.253906 170.253906 81.195313 C 170.296875 81.117188 170.328125 80.929688 170.339844 80.628906 C 170.34375 80.546875 170.355469 79.992188 170.367188 78.964844 L 170.367188 76.253906 C 170.367188 75.722656 170.363281 75.207031 170.351563 74.699219 C 170.339844 74.328125 170.3125 74.105469 170.265625 74.039063 C 170.222656 73.972656 170.148438 73.921875 170.050781 73.886719 C 169.949219 73.851563 169.667969 73.832031 169.203125 73.824219 "/>
</g>
</svg>
